<svg viewBox="0 0 24 24" width="24px" height="24px" fill="#333" xmlns="http://www.w3.org/2000/svg" id="password-icon"><path d="M12 15.5C13.933 15.5 15.5 13.933 15.5 12C15.5 10.067 13.933 8.5 12 8.5C10.067 8.5 8.5 10.067 8.5 12C8.5 13.933 10.067 15.5 12 15.5Z" fill="#333"></path>
<path fill-rule="evenodd" clip-rule="evenodd" d="M22.6174 11.5741C22.7938 11.8303 22.7941 12.1693 22.6177 12.4254L22 12C22.6177 12.4254 22.617 12.4264 22.617 12.4264L22.6159 12.428L22.6124 12.433L22.6007 12.4498C22.5907 12.464 22.5764 12.4842 22.5579 12.5101C22.5208 12.5617 22.4669 12.6358 22.397 12.7291C22.2572 12.9156 22.053 13.1794 21.7911 13.4948C21.2683 14.1243 20.5109 14.9651 19.5722 15.808C17.7201 17.4711 15.0434 19.25 12 19.25C8.95655 19.25 6.2799 17.4711 4.42784 15.808C3.48912 14.9651 2.73166 14.1243 2.20885 13.4948C1.94699 13.1794 1.74282 12.9156 1.60302 12.7291C1.53309 12.6358 1.47919 12.5617 1.44215 12.5101C1.42362 12.4842 1.40931 12.464 1.39931 12.4498L1.38755 12.433L1.38413 12.428L1.38234 12.4254L1.99905 12.0007C1.38625 12.4227 1.38234 12.4254 1.38234 12.4254C1.20589 12.1693 1.20589 11.8307 1.38234 11.5746L2 12C1.38234 11.5746 1.38303 11.5736 1.38303 11.5736L1.38413 11.572L1.38755 11.567L1.39931 11.5502C1.40931 11.536 1.42362 11.5158 1.44215 11.4899C1.47919 11.4383 1.53309 11.3642 1.60302 11.2709C1.74282 11.0844 1.94699 10.8206 2.20885 10.5052C2.73166 9.87566 3.48912 9.0349 4.42784 8.19197C6.2799 6.52887 8.95655 4.75 12 4.75C15.0434 4.75 17.7201 6.52887 19.5722 8.19197C20.5109 9.0349 21.2683 9.87566 21.7911 10.5052C22.053 10.8206 22.2572 11.0844 22.397 11.2709C22.4669 11.3642 22.5208 11.4383 22.5579 11.4899C22.5764 11.5158 22.5907 11.536 22.6007 11.5502L22.6124 11.567L22.6159 11.572L22.6174 11.5741ZM3.36285 12.5365C3.19149 12.3301 3.04743 12.1484 2.93299 12C3.04743 11.8516 3.19149 11.6699 3.36285 11.4635C3.8521 10.8743 4.5591 10.0901 5.43003 9.30803C7.19725 7.72113 9.5206 6.25 12 6.25C14.4794 6.25 16.8028 7.72113 18.57 9.30803C19.4409 10.0901 20.1479 10.8743 20.6372 11.4635C20.8085 11.6699 20.9526 11.8516 21.067 12C20.9526 12.1484 20.8085 12.3301 20.6372 12.5365C20.1479 13.1257 19.4409 13.9099 18.57 14.692C16.8028 16.2789 14.4794 17.75 12 17.75C9.5206 17.75 7.19725 16.2789 5.43003 14.692C4.5591 13.9099 3.8521 13.1257 3.36285 12.5365ZM22 12C22.6177 11.5746 22.6174 11.5741 22.6174 11.5741L22 12Z" fill="#333"></path></svg>