<svg viewBox="0 0 24 24" width="24px" height="24px" fill="#333" xmlns="http://www.w3.org/2000/svg" id="password-icon"><path d="M3.53018 2.46967C3.23729 2.17678 2.76242 2.17678 2.46952 2.46967C2.17663 2.76256 2.17663 3.23744 2.46952 3.53033L20.4695 21.5303C20.7624 21.8232 21.2373 21.8232 21.5302 21.5303C21.8231 21.2374 21.8231 20.7626 21.5302 20.4697L3.53018 2.46967Z" fill="#333"></path>
<path d="M2.20871 10.5052C2.70834 9.90357 3.42227 9.10903 4.30391 8.30405L5.36576 9.36589C4.52422 10.1287 3.83989 10.8889 3.3627 11.4635C3.19135 11.6699 3.04729 11.8516 2.93284 12C3.04729 12.1484 3.19135 12.3301 3.3627 12.5365C3.85195 13.1257 4.55895 13.9099 5.42988 14.692C7.1971 16.2789 9.52046 17.75 11.9999 17.75C12.529 17.75 13.051 17.683 13.562 17.5622L14.7727 18.7728C13.8951 19.0707 12.966 19.25 11.9999 19.25C8.95641 19.25 6.27976 17.4711 4.42769 15.808C3.48898 14.9651 2.73151 14.1243 2.20871 13.4948C1.94685 13.1794 1.74267 12.9156 1.60287 12.7291C1.53294 12.6358 1.47904 12.5617 1.442 12.5101C1.42348 12.4842 1.40916 12.464 1.39916 12.4498L1.38741 12.433L1.38398 12.428L1.38288 12.4264C1.38288 12.4264 1.3822 12.4254 1.99985 12C1.3822 11.5746 1.38249 11.5741 1.38249 11.5741L1.38398 11.572L1.38741 11.567L1.39916 11.5502C1.40916 11.536 1.42348 11.5158 1.442 11.4899C1.47904 11.4383 1.53294 11.3642 1.60287 11.2709C1.74267 11.0844 1.94685 10.8206 2.20871 10.5052Z" fill="#333"></path>
<path d="M1.99985 12L1.3822 12.4254C1.20574 12.1693 1.20603 11.8303 1.38249 11.5741L1.99985 12Z" fill="#333"></path>
<path d="M20.637 12.5365C20.1598 13.1111 19.4755 13.8713 18.6339 14.6341L19.6958 15.696C20.5774 14.891 21.2914 14.0964 21.791 13.4948C22.0529 13.1794 22.257 12.9156 22.3968 12.7291C22.4668 12.6358 22.5207 12.5617 22.5577 12.5101C22.5762 12.4842 22.5905 12.464 22.6005 12.4498L22.6123 12.433L22.6157 12.428L22.6168 12.4264C22.6168 12.4264 22.6175 12.4254 21.9999 12L22.6175 12.4254C22.794 12.1693 22.794 11.8307 22.6175 11.5746L21.9999 12C22.6175 11.5746 22.6175 11.5746 22.6175 11.5746L22.6168 11.5736L22.6157 11.572L22.6123 11.567L22.6005 11.5502C22.5905 11.536 22.5762 11.5158 22.5577 11.4899C22.5207 11.4383 22.4668 11.3642 22.3968 11.2709C22.257 11.0844 22.0529 10.8206 21.791 10.5052C21.2682 9.87566 20.5107 9.0349 19.572 8.19197C17.72 6.52887 15.0433 4.75 11.9999 4.75C11.0337 4.75 10.1046 4.92926 9.227 5.22717L10.4377 6.43783C10.9487 6.317 11.4707 6.25 11.9999 6.25C14.4793 6.25 16.8026 7.72113 18.5698 9.30803C19.4408 10.0901 20.1478 10.8743 20.637 11.4635C20.8084 11.6699 20.9524 11.8516 21.0669 12C20.9524 12.1484 20.8084 12.3301 20.637 12.5365Z" fill="#333"></path></svg>